<?xml version="1.0" encoding="UTF-8" standalone="no"?>
<!-- Created with Inkscape (http://www.inkscape.org/) -->

<svg
   width="800"
   height="523"
   viewBox="0 0 211.66664 138.37706"
   version="1.1"
   id="svg1"
   xml:space="preserve"
   inkscape:version="1.3.2 (091e20e, 2023-11-25, custom)"
   sodipodi:docname="frame.svg"
   xmlns:inkscape="http://www.inkscape.org/namespaces/inkscape"
   xmlns:sodipodi="http://sodipodi.sourceforge.net/DTD/sodipodi-0.dtd"
   xmlns="http://www.w3.org/2000/svg"
   xmlns:svg="http://www.w3.org/2000/svg"><sodipodi:namedview
     id="namedview1"
     pagecolor="#ffffff"
     bordercolor="#000000"
     borderopacity="0.25"
     inkscape:showpageshadow="2"
     inkscape:pageopacity="0.0"
     inkscape:pagecheckerboard="0"
     inkscape:deskcolor="#d1d1d1"
     inkscape:document-units="px"
     inkscape:zoom="0.36945288"
     inkscape:cx="623.89553"
     inkscape:cy="1050.2016"
     inkscape:window-width="1995"
     inkscape:window-height="1360"
     inkscape:window-x="-7"
     inkscape:window-y="0"
     inkscape:window-maximized="0"
     inkscape:current-layer="layer1" /><defs
     id="defs1" /><g
     inkscape:label="Layer 1"
     inkscape:groupmode="layer"
     id="layer1"><path
       style="fill:#000000;stroke-width:0.26341"
       d="m 15.328874,138.0129 c -2.07104,-1.13907 -3.376917,-3.24312 -4.887333,-4.99978 -1.7258086,-1.58376 -3.2231273,-3.81726 -2.6967125,-6.2723 0.2084102,-1.91075 2.1222755,-3.16014 3.5335905,-3.90193 1.71213,-3.92578 0.724423,-8.30184 0.40134,-12.40307 -0.843711,-6.27405 -0.472084,-12.624211 -0.681245,-18.934828 -0.198003,-7.23681 0.07254,-14.501889 -0.644109,-21.71431 C 9.2749709,62.899476 8.9481604,55.931084 8.7607308,48.97095 8.6238181,44.711956 7.9831384,40.49235 7.4937301,36.26628 6.2740905,34.937881 3.4555928,35.548864 3.142456,33.174144 2.3265004,32.592695 1.9600441,31.442735 3.1492256,32.584516 3.7344653,33.299875 4.8631914,34.179318 3.8328174,32.836178 3.2786865,31.549092 0.18414422,32.083486 1.5997463,30.256767 1.6100193,28.175745 1.6289585,26.075865 1.7713212,24.014166 0.95122519,22.184918 2.134527,19.850679 2.3430163,17.85773 2.8558972,15.807651 2.662051,13.443001 3.5017054,11.573868 c 0.646422,1.783006 -0.1841238,4.024311 -0.07218,5.994346 -0.1943177,1.773509 -0.1298928,4.017119 -1.5099151,5.205742 0.8624395,0.870242 -0.2979275,2.209383 0.4821093,3.557891 0.6618262,1.552574 -1.0364875,4.223886 0.2707279,5.049055 0.7120848,-1.793157 0.1978843,-3.948093 0.4434959,-5.937936 -0.7083629,-1.861014 0.2367347,-3.624807 0.233803,-5.62049 0.2616401,-2.814944 0.3759154,-5.711095 1.2418397,-8.412863 0.083704,1.682812 -0.152612,4.849752 -0.3295051,7.051941 0.353839,1.994421 -1.6686251,3.868627 -0.7510117,5.431406 0.8866495,0.142405 1.4711885,1.032468 0.1013287,1.046595 0.7018487,1.621329 1.3887121,4.489622 -0.3360404,5.591072 0.2600018,1.957123 3.3452972,1.941932 2.7510726,-0.474718 -0.077543,-1.061469 -1.6852646,-4.41936 -0.3596393,-4.203627 0.2469261,1.915272 1.4525338,3.629822 0.7718105,5.716034 0.3331376,1.58779 2.3610516,-0.653492 1.5617305,0.774342 -1.4823492,0.973003 -2.3931823,-0.862129 -3.5552141,0.581942 1.1906039,0.735897 3.4713996,1.976106 3.5614253,3.006412 0.020388,2.020006 1.064915,4.1617 1.2935446,6.264249 1.0755943,6.741182 0.7593123,13.602419 1.4200003,20.384545 0.590721,6.224877 1.367697,12.449734 1.197966,18.716403 -0.0072,5.74306 0.02423,11.485444 0.271716,17.222793 0.0074,4.767418 0.148118,9.561938 0.393406,14.304198 0.484316,2.73877 0.679993,5.57397 0.475073,8.34808 0.01765,1.37296 -1.977671,3.04019 -2.634959,3.00263 0.562769,-1.57546 -2.0497822,2.058 -1.4647032,3.22812 -0.1430555,2.25428 1.9219782,3.80311 3.3773812,5.22309 1.162382,1.32268 1.594475,3.36172 3.184087,4.26286 1.795204,-0.46983 3.429188,-1.22938 5.152041,-1.88844 2.154612,-0.90381 3.876272,-2.51365 5.791132,-3.80853 1.422598,-1.21109 2.603666,-2.22181 4.646141,-2.29763 2.958382,-0.26401 5.915652,0.25023 8.881639,0.15527 6.963787,0.48794 13.947639,0.34909 20.917841,0.14188 10.212112,0.1419 20.429662,0.28368 30.643335,0.12229 4.755242,-0.34928 9.529976,-0.55682 14.287266,-0.11339 4.84481,-0.45856 9.70608,-0.21494 14.54896,0.12482 10.23717,0.14565 20.47691,-0.002 30.71216,-0.13092 6.95918,0.23239 13.93225,0.31691 20.88509,-0.15588 3.38773,0.18212 6.84539,-0.75297 10.16843,0.18776 1.81597,0.45197 2.93315,2.14284 4.65844,3.1573 1.7663,1.21758 3.47704,2.60558 5.61688,3.12635 1.23799,0.49487 2.76601,1.48963 4.07999,1.20148 1.57787,-1.41218 2.04049,-3.74948 3.8234,-5.00953 1.53109,-1.34788 2.89422,-3.25821 2.29644,-5.39863 -0.0424,-1.15241 -2.09708,-3.81603 -1.47483,-1.93993 -2.04367,-1.04437 -2.82034,-3.26235 -2.65255,-5.46034 0.007,-2.34277 0.35668,-4.68626 0.69588,-6.98128 0.12506,-4.99089 0.31324,-9.98355 0.32001,-14.978789 0.51345,-8.321378 -0.0971,-16.676891 0.54164,-24.991459 0.7809,-7.351512 1.36441,-14.722869 1.57484,-22.114527 0.12671,-4.559142 0.82834,-9.095217 2.14663,-13.459617 -0.79164,-1.301146 1.56467,-1.854126 2.39202,-2.86892 1.86495,-0.03688 0.35875,-1.554905 -0.27423,-1.128618 -0.96479,1.403658 -3.81559,-1.528006 -1.5012,-0.134518 1.33086,-0.304284 0.61203,-2.050904 0.68872,-3.060495 0.25365,-1.147213 0.93849,-2.811723 1.22412,-3.547994 0.9469,2.043015 -1.91603,4.476844 -0.004,6.380655 1.14321,0.349859 3.05472,-1.547583 1.30406,-2.159 -0.62585,-1.552472 0.117,-3.843622 0.24353,-4.938837 -2.04728,-0.467925 2.03135,-1.358775 0.35417,-2.394773 -1.13031,-3.598911 -0.94464,-7.621839 -1.20505,-11.21823 0.94831,2.449376 0.98793,5.199953 1.26733,7.805315 -0.25757,1.99538 1.18011,3.989264 0.29084,5.783006 0.26266,1.934772 -0.30566,4.196832 0.38322,5.919382 0.68643,1.729934 0.61788,-1.428029 0.30527,-2.082398 -0.50181,-1.767138 0.93816,-3.853568 -0.0181,-5.288587 1.30684,-1.070271 -1.35671,-2.088483 -0.73774,-3.745594 -0.38698,-2.385897 -0.32813,-4.827375 -0.60442,-7.230504 0.43906,-2.2994 0.94062,1.507916 0.96416,2.22313 0.29891,2.986946 1.23518,5.876978 1.42601,8.864377 -0.81964,1.505342 0.0531,3.570963 -0.21039,5.306968 -0.34207,1.030295 0.65218,1.846016 0.20041,2.701365 -1.04003,-0.08617 -3.0384,1.528098 -2.6995,1.962873 0.52183,-0.874404 2.81724,-2.219793 1.12014,-0.530453 -0.41302,2.327738 -2.93578,2.056393 -4.4036,3.106515 -0.55689,2.947835 -0.7617,6.01946 -1.13007,9.019136 -0.53193,7.706486 -0.37796,15.473659 -1.63547,23.119508 -0.97077,7.346747 -0.60328,14.781449 -0.82524,22.170383 -0.16598,5.90598 0.0358,11.83 -0.42453,17.72294 -0.40872,4.30311 -1.32257,8.68002 -0.49278,12.98285 -0.0672,2.14059 1.89192,1.9891 2.84855,3.36973 1.72548,1.27105 1.68644,3.92066 0.83063,5.70325 -1.15798,1.92973 -2.79026,3.52519 -4.24982,5.21581 -1.18235,2.05962 -3.55904,3.12969 -5.88801,2.61189 -2.52933,-0.24736 -4.23703,-2.30696 -6.30037,-3.54194 -1.78648,-1.16188 -3.38278,-2.70406 -5.35292,-3.53079 -3.15774,-0.70224 -6.37451,0.0827 -9.56726,-0.0637 -6.64191,0.28263 -13.29532,0.47021 -19.93771,0.12344 -8.20597,0.0234 -16.41271,0.32687 -24.62067,0.17796 -4.46323,0.0263 -8.91567,-0.21691 -13.3646,-0.53676 -3.92873,-0.0478 -7.84812,0.53619 -11.78022,0.18065 -5.238837,-0.59922 -10.466738,0.46671 -15.713022,0.32584 -8.847701,0.1835 -17.69576,-0.065 -26.541398,-0.15478 -6.034226,0.24425 -12.07879,0.27995 -18.113011,-0.0368 -3.074622,-0.10456 -6.151631,-0.12076 -9.21889,-0.32665 -2.346883,-0.23606 -4.377966,0.90153 -6.073119,2.38794 -2.195,1.34754 -4.115964,3.11006 -6.361684,4.3678 -1.581075,0.55353 -3.379693,0.9834 -5.047225,0.62424 z m 0.265839,-4.44968 c -2.223578,-0.76683 -3.342943,-3.28898 -3.798824,-5.44117 -0.783011,-1.98914 1.445677,-2.64101 2.354168,-3.23342 0.510155,-1.28156 1.131279,2.10597 2.290832,2.07136 1.147652,0.93698 4.039594,0.81093 4.645941,1.48936 -1.64377,1.59515 -4.57168,0.49289 -6.080023,-0.92416 -0.49091,-1.07042 -1.756701,-2.80374 -2.025922,-0.58629 0.311883,2.01731 1.330327,4.63271 3.482681,5.19859 2.252745,0.0575 4.033446,-1.81079 5.266335,-3.48328 2.009931,0.0559 -1.067041,3.08844 -2.27356,3.73507 -1.057911,0.80891 -2.513653,1.448 -3.861628,1.17394 z m 179.070687,-0.0281 c -2.27735,-0.70228 -4.7033,-2.39521 -5.52267,-4.65983 1.28759,-1.14989 1.90922,2.05413 3.39501,2.39846 2.16265,2.01937 4.84403,0.22007 5.5887,-2.15113 0.92462,-0.74135 0.59331,-4.43952 -0.59899,-2.8967 -0.98386,2.31509 -3.95696,3.40864 -6.28628,2.81378 -2.169,-1.21782 2.03111,-1.0893 2.88962,-1.53192 1.58113,0.0154 2.71982,-2.81785 3.27592,-2.87413 0.50494,1.14145 3.22025,0.95899 2.51705,3.15959 -0.23692,2.14822 -1.42111,4.19377 -3.09339,5.54123 -0.67235,0.28214 -1.45404,0.42793 -2.16497,0.20065 z m -94.26109,-8.44166 c -8.956296,-0.31025 -17.923439,-0.0349 -26.881664,-0.13833 -6.549883,-0.42891 -13.115835,-0.0928 -19.671721,-0.0859 -8.169387,0.26906 -16.35533,0.13885 -24.509601,-0.42857 -3.397378,-0.61559 -7.166054,-0.10376 -10.204178,-2.03063 -1.716294,-1.55162 -1.559139,-4.13158 -1.793055,-6.25058 0.0091,-4.04837 -0.23492,-8.08436 -0.580833,-12.1159 C 16.098961,91.854185 15.647355,79.652442 15.615272,67.44363 15.45166,59.942306 15.255013,52.441535 15.401846,44.938178 c 0.06438,-6.466769 -0.292978,-12.925494 -0.372301,-19.388876 -0.664416,-2.272301 1.039641,-3.271492 3.030282,-3.346161 2.030738,-0.419618 0.33206,-4.686237 1.960136,-3.938982 0.569121,1.957992 0.154097,5.088454 -2.296943,5.431441 -2.748433,-0.221215 -0.986619,3.185043 -1.261024,4.848742 0.881366,10.735765 0.495459,21.516328 0.837895,32.271343 0.342441,7.869039 0.128455,15.751146 0.469955,23.62161 0.302585,8.711686 0.554284,17.430775 1.274637,26.120065 0.22873,3.664 -0.296507,7.43416 0.478728,11.02301 2.048981,-0.28258 4.258753,0.85289 6.440757,0.75231 5.175632,0.74201 10.418163,0.81477 15.629176,1.12132 5.368006,0.0624 10.731506,-0.0923 16.093487,-0.31304 5.678588,-1e-4 11.362908,-0.26133 17.033765,0.16276 8.619798,-0.0973 17.248001,-0.22726 25.862824,0.1549 3.04972,0.14308 6.11968,0.15708 9.17641,0.0567 8.79254,-0.41553 17.61772,-0.35243 26.42323,-0.204 4.63433,-0.222 9.27406,-0.35767 13.91451,-0.18757 5.94055,-0.0574 11.86775,0.44992 17.80974,0.32895 4.80624,0.004 9.60319,-0.40645 14.39909,-0.69762 3.11844,-0.44895 6.29383,-0.53053 9.33846,-1.40691 1.47679,0.25918 0.5684,-3.21704 0.9408,-4.34364 -0.11456,-4.33103 0.15947,-8.65084 0.52261,-12.96387 0.66669,-12.890829 1.08485,-25.796467 1.10991,-38.70564 0.38518,-7.948803 0.29739,-15.90776 0.41151,-23.862397 0.12016,-5.767201 0.44009,-11.525458 0.87801,-17.275761 -1.81907,-0.468228 -4.30772,-1.371156 -4.05409,-3.956451 -0.52132,-1.116028 0.98929,-3.544391 0.96001,-1.219042 -0.61125,2.705268 1.93312,3.557569 3.94046,4.006412 0.64717,1.778409 0.15253,3.825418 0.26397,5.709997 -0.39535,8.287506 -0.34138,16.587953 -0.29978,24.880856 -0.0994,8.091955 -0.33345,16.181614 -0.37667,24.274936 -0.19907,9.587378 -0.60175,19.172925 -1.2048,28.74291 -0.69826,4.72507 0.19006,9.61026 -1.1189,14.24637 -0.83587,2.31864 -3.66595,2.6781 -5.78104,3.00186 -4.32903,0.40898 -8.65254,0.925 -13.00983,0.93429 -8.91478,0.44131 -17.83566,-0.0503 -26.75418,-0.0569 -5.60188,-0.19798 -11.18961,0.4281 -16.79162,0.21015 -6.60396,0.0294 -13.21651,-0.15898 -19.81453,0.11538 -2.44293,-0.11013 -4.88134,0.0643 -7.33356,-0.0452 -1.2493,-0.27681 -2.48024,0.32241 -3.72863,0.0511 z M 11.655154,42.702499 c -0.751323,-0.725719 -1.306731,-3.567341 -0.458803,-3.656334 0.343545,0.785874 1.239216,4.00588 1.284752,1.381702 0.330846,-1.00388 0.125181,-2.174096 -1.041569,-1.525111 C 9.7610234,38.54053 10.964935,35.414567 9.0549969,36.408748 8.6743164,35.291883 5.8353175,34.169326 6.7598744,33.245136 c 1.1897425,0.190727 3.5362516,3.936685 2.9834504,0.948609 -0.8534097,-1.1225 -1.3241976,-2.508246 -0.689695,-4.130558 -0.020704,-1.765096 -1.7467709,-4.056826 0.058116,-5.539668 1.6987992,0.424246 -1.0213628,1.98644 0.6703343,3.150916 1.1095049,1.066996 -0.7113974,4.25509 0.8035199,4.490711 2.596491,0.197376 0.17795,-2.792175 0.736912,-4.382423 0.08429,-1.690032 0.238536,-3.534012 -1.9893199,-3.305026 -1.2852366,-1.25234 0.1387145,-3.470178 -0.7673852,-5.151921 -0.094335,-2.418838 -0.8860515,-4.833633 -0.5362295,-7.25391 0.9922506,2.735589 1.3431921,5.669163 1.5560645,8.555168 -0.2679989,1.27386 -1.1564369,4.282057 1.2659341,2.790039 1.186555,-1.895585 -0.299092,-4.226821 -0.595299,-6.240943 -0.4940607,-1.74317 -1.092513,-4.668233 -0.7533433,-5.881256 0.4089998,2.107124 1.3179423,4.101224 1.4007503,6.277694 0.302337,2.060047 1.099696,4.063532 0.874619,6.156409 0.942366,1.571184 0.886257,3.847085 0.114244,5.614689 1.018378,1.862498 0.887967,3.939374 1.15331,5.967665 -0.03709,2.144307 0.450967,4.09545 0.256151,6.236541 -0.126118,0.702441 -0.834428,1.899241 -1.646854,1.154627 z m 0.381068,-4.995459 c 0.571832,-0.836273 0.507409,-2.161292 0.114686,-3.11282 -0.131363,-2.376656 -2.7775376,-0.586622 -1.282966,0.950514 0.407896,0.582308 0.264379,2.200176 1.16828,2.162306 z m 187.023228,5.035827 c -1.35058,-1.680215 -0.53797,-4.133858 -0.40146,-6.079804 -0.20466,-2.206032 0.3194,-4.257029 0.65127,-6.350811 1.11084,-1.720593 -0.98345,-3.793893 0.18445,-5.708953 0.75929,-1.671984 0.29353,-3.992905 1.07688,-5.900838 0.29967,-2.185757 0.67277,-4.362806 1.40265,-6.445668 0.62326,-2.5977939 0.1913,1.765297 -0.008,2.673485 -0.42456,2.54162 -1.57213,4.972915 -1.60698,7.568673 0.41509,2.21969 3.35035,1.153376 1.87394,-0.793927 -0.40364,-2.319959 0.36532,-4.656927 0.62161,-6.961314 0.20288,-0.826062 1.02883,-4.09859 0.89525,-1.461674 -0.20656,2.940462 -0.62829,5.861561 -1.06501,8.771881 1.22378,2.039177 -0.93975,2.629216 -2.23071,3.010133 -0.16024,2.276855 0.0527,4.615567 -0.67168,6.816202 0.74244,0.04248 2.45502,0.932109 1.82728,-0.804608 -0.3658,-1.731051 0.44065,-3.350231 0.78232,-4.776937 0.23575,-0.964155 -1.31338,-1.34419 0.17776,-1.775188 1.80489,1.482842 0.0788,3.774572 0.0581,5.539668 0.6345,1.622312 0.16371,3.008058 -0.6897,4.130558 -0.5148,3.10651 1.89579,-1.08455 3.22919,-0.97529 -0.0984,1.340453 -2.01509,2.426635 -2.93314,3.259978 -1.43639,-0.999952 -0.55667,3.351617 -2.58508,2.310928 -1.24864,-0.383729 -0.255,4.683397 0.28124,1.795588 0.0377,-1.290373 1.34849,-2.534388 0.91638,-0.368555 -0.12148,0.920829 -0.29567,3.263316 -1.78671,2.526473 z m 0.97259,-5.12088 c 0.29871,-1.325617 2.43137,-3.995984 -0.003,-4.353484 -0.41626,1.074574 -0.94496,2.133341 -0.7586,3.316382 -0.0466,0.389376 0.15501,1.547383 0.76198,1.037102 z M 5.4512443,25.347622 c -0.682151,-1.105556 0.2381624,-1.872049 0.9489881,-0.80829 2.8449204,-0.944284 0.393664,2.01993 -0.9489881,0.80829 z m 199.3546257,0.09535 c -1.49583,-0.451973 -0.41457,-1.636131 0.70475,-0.945754 1.4443,-1.865305 1.13602,2.366844 -0.70475,0.945754 z M 5.9195508,23.202396 c 0.6218485,-3.565192 -0.669041,-7.197599 0.1533838,-10.757351 0.2427247,-2.6102564 0.8077924,1.673282 0.7285006,2.364273 0.5169927,2.333823 -0.057223,4.59987 -0.5157757,6.865024 -0.094585,0.394173 0.03648,1.475116 -0.3661087,1.528054 z M 205.61778,23.1546 c -0.1135,-2.225016 -1.16164,-4.328679 -0.90676,-6.586139 0.2441,-1.256375 0.1154,-4.689095 0.78004,-4.890051 0.71454,3.003249 0.2239,6.063646 0.0995,9.097856 -0.0836,0.675368 0.15092,2.168623 0.0273,2.378334 z M 20.221401,17.852025 c -1.312774,-0.288576 -3.116866,-0.458239 -3.572041,-1.728764 -1.786968,1.485017 -2.963682,-0.785537 -3.819836,-1.8514 -1.244277,0.313605 -3.6109466,-2.078729 -2.429855,-2.533491 1.457255,1.398514 3.115994,3.842413 5.270397,3.680276 1.969772,-1.459448 -0.0098,-3.722219 -1.947234,-3.6177 C 12.284812,11.453998 12.253785,9.4543188 11.045093,11.03286 9.1449094,10.925009 8.0205374,9.4304775 8.083474,7.4960347 7.2320004,6.4872077 5.6289277,10.807442 8.1237363,9.8439316 7.5641001,11.375183 5.2991222,8.5498417 6.5930961,7.5137175 4.852597,7.0209796 4.4054924,4.2976467 5.8284162,3.2230935 4.9862461,4.3870903 6.3232429,6.365736 7.6965823,6.2978657 8.4702446,7.5089339 10.198435,5.6668375 11.231256,7.3288956 c 1.098173,1.3508258 0.755242,3.6870324 3.250951,3.5957374 2.03863,0.160696 2.778591,2.91986 3.087608,3.816775 0.361663,0.42393 -1.065352,2.712499 0.968757,2.445569 2.134335,-0.318939 5.358108,-0.445937 5.576683,-3.242338 -1.461735,0.926522 -3.422853,1.486477 -5.170889,0.78201 -1.621039,-0.06363 -1.313123,-1.792375 0.224834,-0.923624 1.805146,0.860724 3.632702,-0.379509 5.242742,-0.186455 0.275353,1.227186 1.848173,0.45733 2.74391,0.738207 6.326519,0.04173 12.612931,-0.861352 18.923933,-1.191626 3.77596,-0.453234 7.569955,-0.577925 11.370826,-0.564665 7.579311,-0.125778 15.159753,-0.31493 22.739217,-0.34905 8.00277,0.166952 16.008764,0.201175 24.011302,0.35508 2.8133,0.216212 5.63552,-0.197463 8.45916,-0.09079 7.80969,-0.01976 15.61862,-0.317049 23.42733,-0.240483 8.36741,0.186918 16.73922,0.237419 25.1046,0.466826 5.7405,0.594388 11.50477,0.916857 17.255,1.401437 2.8319,0.246758 5.67357,0.282879 8.51108,0.128268 0.89179,-2.015141 3.22387,0.827416 4.88759,-0.35975 1.03258,-0.558577 3.18342,-0.149999 1.25845,0.731719 -1.80457,0.664152 -3.92394,0.503304 -5.43973,-0.726085 -0.18299,2.485924 3.07854,3.009771 5.0538,3.228989 1.96346,0.557384 1.65899,-1.513869 1.27182,-2.431446 0.76601,-0.03974 0.40826,-3.001246 2.08979,-3.249979 1.6472,-0.805604 4.03677,-0.995486 3.78452,-3.418125 0.71089,-1.8062806 2.85015,-1.3010492 3.82678,-1.4477292 1.15159,-0.3596103 2.86998,-1.6080564 2.31385,-3.0363538 0.34401,-0.5184467 1.24595,2.3963565 0.15674,3.2095724 -0.82816,0.7249446 -1.58435,0.7465363 -0.73702,1.9753584 0.70941,2.0229912 -3.79612,1.3290102 -0.98531,1.1082222 1.48047,-0.265636 -0.69973,-3.8642838 -0.89004,-2.0397463 0.18923,2.0006326 -1.79507,3.7546263 -3.54915,2.8794983 -0.55555,-1.0489339 -1.3664,1.607659 -2.58023,1.328315 -3.20247,-0.63184 -2.49958,5.133924 0.29859,3.106779 1.18979,-1.155934 2.88062,-2.647084 3.96232,-3.358215 0.0476,2.7273 -3.76181,1.706935 -3.89658,4.155874 -1.15646,1.757212 -3.04023,-0.912398 -3.5311,1.201962 -1.98976,0.667026 -4.54355,1.396938 -6.29235,-0.270962 -0.80681,-2.284876 -3.314,-0.351466 -5.15057,-0.703058 -5.85492,-0.05621 -11.68926,-0.585551 -17.54019,-0.73516 -4.08523,-0.353259 -8.18135,-0.39487 -12.27639,-0.225979 -7.27393,0.108962 -14.54499,-0.262159 -21.8169,-0.219695 -13.4612,0.261366 -26.92736,0.287776 -40.390449,0.156057 -6.453248,-0.06144 -12.906834,-0.30805 -19.358692,-0.04058 -6.354151,0.152194 -12.711031,0.129359 -19.063799,-0.0016 -4.37144,0.247761 -8.744591,0.448235 -13.118876,0.63136 -3.881949,0.230429 -7.78415,0.519089 -11.671058,0.355246 -1.585522,-0.01723 -3.341407,-1.179014 -3.920951,0.901585 -0.939951,0.775105 -2.252474,0.969539 -3.431764,0.876186 z M 10.967279,9.9194355 C 11.934461,8.9831042 10.227373,7.7020163 9.2175501,8.0486958 c -0.7899384,0.814454 0.8450149,1.2705146 1.0724619,1.9587212 0.01459,0.424449 0.56335,-0.023575 0.677267,-0.087981 z M 201.53527,9.5899382 c 0.82347,-0.00435 1.72736,-1.6045899 0.57014,-1.5549134 -0.92902,-0.2181722 -2.44298,1.2990736 -1.29677,1.9706142 0.53612,0.380225 0.58835,0.05371 0.72663,-0.4157008 z M 8.6976546,7.394627 c -0.4879043,-1.0562356 -0.2691895,0.690962 0,0 z M 203.22512,7.2876904 c 0.1272,-0.8269976 -0.46003,0.9160961 0,0 z M 1.658197,13.62644 C -0.36850606,11.922191 -0.45365949,8.5468784 0.94757169,6.4122279 2.4192288,5.845751 2.9820575,5.3457957 2.1908442,3.7717639 2.1526813,1.6631701 4.4203197,0.09239884 6.386082,0.006923 c 3.0249007,-0.06367944 5.656111,2.0423776 7.388629,4.335298 0.561409,2.1808763 2.953519,2.6329278 4.879693,3.0423675 7.257762,1.7107048 14.692403,0.3104132 22.015643,-0.015331 6.12908,-0.4824886 12.277386,-0.9954458 18.428118,-0.630346 2.740916,-0.086422 5.499414,0.1407374 8.238386,0.096816 2.184205,-0.048581 4.359966,-0.2569435 6.532432,-0.2923617 5.495375,0.5647569 11.020487,-0.050548 16.530603,0.0039 4.897822,-0.074782 9.797464,0.1239398 14.691644,0.2857975 4.42678,-0.084202 8.87193,-0.2445633 13.30548,-0.3176227 5.71508,-0.025683 11.42828,0.3446986 17.14099,0.2247758 2.20738,-0.3853007 4.38722,-0.064082 6.59701,-0.00622 2.95507,0.2421662 5.9049,-0.00959 8.86639,-0.00419 5.22915,-0.1097577 10.49025,-0.2229741 15.71031,0.3255936 5.24148,0.3575294 10.47967,0.7672166 15.72154,1.1028197 4.57225,0.2309502 9.25464,-0.099227 13.5934,-1.6401477 1.8738,-0.8164032 1.97506,-3.3414672 3.88866,-4.2978018 1.96233,-1.8168939 5.24583,-3.11342792 7.67862,-1.45847972 1.96184,0.91891542 2.14091,3.21670372 1.55734,4.86893402 2.63917,0.4654301 2.83332,3.9075516 2.23613,6.0049685 -0.10294,0.874614 -2.14943,3.220141 -2.12076,1.676312 1.78049,-0.655015 1.52536,-3.214678 1.49805,-4.7769795 -0.0451,-2.8018924 -2.91931,-1.7581819 -4.3739,-1.2498291 1.13601,-1.4894638 2.9537,-3.4590561 1.66117,-5.4090348 -1.33404,-2.12224886 -3.96818,-0.7813376 -5.65023,0.092225 -2.28593,0.9988095 -4.3234,2.6186878 -5.55763,4.8025643 -2.3295,2.0641592 -5.65664,2.1556601 -8.58725,2.6464882 -6.47275,0.4670264 -12.93404,-0.481535 -19.39837,-0.7038454 -4.92648,-0.4148264 -9.86623,-0.6860257 -14.81106,-0.4530498 -2.49949,0.2076094 -5.00432,0.048128 -7.51063,0.2139602 -4.19205,0.1300167 -8.37242,-0.3758337 -12.56357,-0.082437 -7.311,-0.2087816 -14.62718,-0.4519777 -21.941,-0.5425513 -4.4791,0.4055543 -8.97078,0.2118951 -13.450935,-0.01483 C 91.623251,8.0061524 84.663109,8.1707575 77.707958,8.3920669 74.131742,8.1428518 70.556744,8.4741086 66.983586,8.4906745 64.438145,8.4896209 61.891837,8.3265567 59.353413,8.3665898 53.845138,7.9725623 48.318424,8.2457135 42.822696,8.7135933 36.358363,8.9359037 29.897081,9.8844678 23.424322,9.4174387 20.493717,8.9266106 17.166576,8.8351098 14.837071,6.7709506 13.202131,3.7771876 10.043731,2.115593 6.9560729,0.96145437 5.0812424,-0.0378989 2.7583379,1.8078087 3.2308143,3.8447786 2.9994479,5.127339 5.815862,6.8937129 4.8677247,7.3453878 3.1226501,5.7334408 0.39166487,6.8054468 0.853466,9.3554767 0.9278465,10.812107 0.9326856,12.916915 2.55621,13.414297 2.7508808,14.116251 1.9358578,13.956559 1.658197,13.626429 Z m 7.0985484,-2.083304 c 0.2026889,-1.042386 0.081602,0.914371 0,0 z M 202.83121,11.806183 c -0.22569,-0.866517 0.32781,-0.337742 0,0 z M 3.545205,11.395681 C 3.0520404,9.8645065 4.9809727,7.9389459 5.701052,7.374808 4.9408237,7.8635131 4.6061425,11.470975 4.4482913,9.025724 4.0759055,9.8257694 2.7231753,11.340025 4.3099982,10.991694 4.5627799,11.404774 3.7966696,11.66097 3.545205,11.395681 Z m 203.924545,0 c -0.59644,-0.992637 1.56816,0.162164 0.49672,-1.082026 -0.6988,-2.0926705 -0.76487,-0.5316275 -0.96424,-0.4807814 -0.0229,-0.9796491 -1.94382,-3.8128398 -0.24281,-1.6811607 0.70551,0.4966205 2.55723,3.5436711 0.71033,3.2439681 z M 5.2967173,10.940224 C 3.0026009,10.023548 8.1545026,9.7428558 5.698065,10.978853 Z M 205.66407,10.880398 c -1.46435,-1.6227229 3.30558,-0.310697 0.4011,0.09275 z"
       id="path1" /></g></svg>
