<?xml version="1.0" encoding="UTF-8" standalone="no"?>
<!-- Created with Inkscape (http://www.inkscape.org/) -->

<svg
   width="115"
   height="110"
   viewBox="0 0 30.427082 29.104167"
   version="1.1"
   id="svg1"
   xml:space="preserve"
   inkscape:version="1.3.2 (091e20e, 2023-11-25, custom)"
   sodipodi:docname="webToons.svg"
   xmlns:inkscape="http://www.inkscape.org/namespaces/inkscape"
   xmlns:sodipodi="http://sodipodi.sourceforge.net/DTD/sodipodi-0.dtd"
   xmlns="http://www.w3.org/2000/svg"
   xmlns:svg="http://www.w3.org/2000/svg"><sodipodi:namedview
     id="namedview1"
     pagecolor="#ffffff"
     bordercolor="#666666"
     borderopacity="1.0"
     inkscape:showpageshadow="2"
     inkscape:pageopacity="0.0"
     inkscape:pagecheckerboard="0"
     inkscape:deskcolor="#d1d1d1"
     inkscape:document-units="px"
     inkscape:zoom="5.6568542"
     inkscape:cx="25.809398"
     inkscape:cy="47.287766"
     inkscape:window-width="1920"
     inkscape:window-height="1057"
     inkscape:window-x="-8"
     inkscape:window-y="-8"
     inkscape:window-maximized="1"
     inkscape:current-layer="layer3" /><defs
     id="defs1" /><g
     inkscape:groupmode="layer"
     id="layer2"
     inkscape:label="Layer 2"><path
       style="fill:#cccccc;fill-opacity:1;stroke:none;stroke-width:0.264583px;stroke-linecap:butt;stroke-linejoin:miter;stroke-opacity:1"
       d="M 2.9592339,4.075118 27.374306,0.3333446 26.345317,12.400564 h 3.928862 L 28.590381,23.064618 15.868352,28.770822 15.961896,24.374239 4.9236649,26.151581 0.15290393,11.745754 4.6430319,12.026387 Z"
       id="path1" /></g><g
     inkscape:groupmode="layer"
     id="layer3"
     inkscape:label="Layer 3"><g
       id="g3"
       transform="matrix(1.3447413,0,0,1.3447413,-2.9008898,0.16798976)"><path
         style="fill:#ffffff;fill-opacity:1;stroke:none;stroke-width:0.304009px;stroke-linecap:butt;stroke-linejoin:miter;stroke-opacity:1"
         d="m 6.9222807,7.8736776 1.2898009,5.2868414 1.7039941,-0.01574 0.9830913,-2.745242 0.752384,2.740828 h 1.88096 L 15.09102,7.3900023 13.425028,7.5512275 12.511418,10.936955 11.544068,7.6082292 10.238526,7.6809714 9.2331742,11.205664 8.4807902,7.8199362 Z"
         id="path2"
         sodipodi:nodetypes="cccccccccccccc" /><path
         style="fill:#ffffff;fill-opacity:1;stroke:none;stroke-width:0.264583px;stroke-linecap:butt;stroke-linejoin:miter;stroke-opacity:1"
         d="m 15.128411,7.3817553 v 1.488282 h 1.868619 v 4.4979167 h 1.63711 c 0,0 0.03307,-4.5309897 0,-4.4979167 -0.03307,0.03307 1.719791,0 1.719791,0 v -1.438672 z"
         id="path3" /></g></g></svg>
